<?xml version="1.0" encoding="UTF-8" standalone="no"?>
<svg height="16px" viewBox="0 0 16 16" width="16px" xmlns="http://www.w3.org/2000/svg">
  <path d="m 8,0.36132812 c -0.500976,0 -1.0019537,0.16992197 -1.4101562,0.50976563 L 2.1289062,4.5898438 C 1.414063,5.1874992 1,6.0703129 1,7 v 6 c 0,1.660154 1.3398457,3 3,3 h 8 c 1.660154,0 3,-1.339846 3,-3 V 7 C 15,6.0703129 14.585937,5.1874992 13.871094,4.5898438 L 9.4101562,0.87109375 C 9.0019537,0.53125009 8.500976,0.36132812 8,0.36132812 Z M 8,2.3632812 c 0.045898,0 0.091797,0.015625 0.1289062,0.046875 l 4.4609378,3.71875 C 12.851561,6.34375 13,6.6640623 13,7 v 6 c 0,0.546874 -0.453126,1 -1,1 H 10 V 9 C 10,8.4492196 9.5507804,8 9,8 H 7 C 6.4492196,8 6,8.4492196 6,9 v 5 H 4 C 3.4531255,14 3,13.546874 3,13 V 7 C 3,6.6640623 3.1484385,6.34375 3.4101562,6.1289062 l 4.4609376,-3.71875 C 7.9082027,2.3789063 7.9541015,2.3632812 8,2.3632812 Z" />
</svg>
